name rise31.4854peak64.571fall78.6902.mot
datacolumns 19
datarows 21
range 0.72666800000000 0.76000300000000
endheader
time	ground_force1_vx	ground_force1_vy	ground_force1_vz	ground_force1_px	ground_force1_py	ground_force1_pz	ground_force2_vx	ground_force2_vy	ground_force2_vz	ground_force2_px	ground_force2_py	ground_force2_pz	ground_torque1_x	ground_torque1_y	ground_torque1_z	ground_torque2_x	ground_torque2_y	ground_torque2_z	
0.72666800000000	4.76635600000000	704.65986899999996	45.77611100000000	0.19276200000000	0.00000000000000	0.11485100000000	0.00000000000000	0.00000000000000	0.00000000000000	0.00000000000000	0.00000000000000	0.00000000000000	0.00000000000000	16.81444600000000	0.00000000000000	0.00000000000000	0.00000000000000	0.00000000000000	
0.72833600000000	3.98439500000000	705.44698900000003	45.68746700000000	0.19140200000000	0.00000000000000	0.11481700000000	0.00000000000000	0.00000000000000	0.00000000000000	0.00000000000000	0.00000000000000	0.00000000000000	0.00000000000000	16.88967400000000	0.00000000000000	0.00000000000000	0.00000000000000	0.00000000000000	
0.72999700000000	3.18932800000000	706.27613299999996	45.59708400000000	0.19002100000000	0.00000000000000	0.11478300000000	0.00000000000000	0.00000000000000	0.00000000000000	0.00000000000000	0.00000000000000	0.00000000000000	0.00000000000000	16.96719800000000	0.00000000000000	0.00000000000000	0.00000000000000	0.00000000000000	
0.73166200000000	2.38164300000000	707.14820799999995	45.50521800000000	0.18862100000000	0.00000000000000	0.11474700000000	0.00000000000000	0.00000000000000	0.00000000000000	0.00000000000000	0.00000000000000	0.00000000000000	0.00000000000000	17.04705500000000	0.00000000000000	0.00000000000000	0.00000000000000	0.00000000000000	
0.73333400000000	1.56187100000000	708.06409099999996	45.41213800000000	0.18720200000000	0.00000000000000	0.11471100000000	0.00000000000000	0.00000000000000	0.00000000000000	0.00000000000000	0.00000000000000	0.00000000000000	0.00000000000000	17.12927600000000	0.00000000000000	0.00000000000000	0.00000000000000	0.00000000000000	
0.73500300000000	0.73058100000000	709.02462200000002	45.31812700000000	0.18576700000000	0.00000000000000	0.11467400000000	0.00000000000000	0.00000000000000	0.00000000000000	0.00000000000000	0.00000000000000	0.00000000000000	0.00000000000000	17.21389200000000	0.00000000000000	0.00000000000000	0.00000000000000	0.00000000000000	
0.73666900000000	-0.11162400000000	710.03059399999995	45.22348100000000	0.18431700000000	0.00000000000000	0.11463600000000	0.00000000000000	0.00000000000000	0.00000000000000	0.00000000000000	0.00000000000000	0.00000000000000	0.00000000000000	17.30092800000000	0.00000000000000	0.00000000000000	0.00000000000000	0.00000000000000	
0.73833400000000	-0.96410200000000	711.08274800000004	45.12850900000000	0.18285500000000	0.00000000000000	0.11459700000000	0.00000000000000	0.00000000000000	0.00000000000000	0.00000000000000	0.00000000000000	0.00000000000000	0.00000000000000	17.39040600000000	0.00000000000000	0.00000000000000	0.00000000000000	0.00000000000000	
0.74000300000000	-1.82618300000000	712.18176300000005	45.03353200000000	0.18138200000000	0.00000000000000	0.11455800000000	0.00000000000000	0.00000000000000	0.00000000000000	0.00000000000000	0.00000000000000	0.00000000000000	0.00000000000000	17.48234000000000	0.00000000000000	0.00000000000000	0.00000000000000	0.00000000000000	
0.74166100000000	-2.69716500000000	713.32825400000002	44.93888200000000	0.17990100000000	0.00000000000000	0.11451700000000	0.00000000000000	0.00000000000000	0.00000000000000	0.00000000000000	0.00000000000000	0.00000000000000	0.00000000000000	17.57674200000000	0.00000000000000	0.00000000000000	0.00000000000000	0.00000000000000	
0.74332900000000	-3.57632200000000	714.52275699999996	44.84489800000000	0.17841300000000	0.00000000000000	0.11447500000000	0.00000000000000	0.00000000000000	0.00000000000000	0.00000000000000	0.00000000000000	0.00000000000000	0.00000000000000	17.67361400000000	0.00000000000000	0.00000000000000	0.00000000000000	0.00000000000000	
0.74499600000000	-4.46290300000000	715.76573199999996	44.75193100000000	0.17692100000000	0.00000000000000	0.11443200000000	0.00000000000000	0.00000000000000	0.00000000000000	0.00000000000000	0.00000000000000	0.00000000000000	0.00000000000000	17.77295300000000	0.00000000000000	0.00000000000000	0.00000000000000	0.00000000000000	
0.74666500000000	-5.35613500000000	717.05754999999999	44.66033900000000	0.17542700000000	0.00000000000000	0.11438800000000	0.00000000000000	0.00000000000000	0.00000000000000	0.00000000000000	0.00000000000000	0.00000000000000	0.00000000000000	17.87474700000000	0.00000000000000	0.00000000000000	0.00000000000000	0.00000000000000	
0.74833600000000	-6.25523000000000	718.39848900000004	44.57048600000000	0.17393400000000	0.00000000000000	0.11434400000000	0.00000000000000	0.00000000000000	0.00000000000000	0.00000000000000	0.00000000000000	0.00000000000000	0.00000000000000	17.97897800000000	0.00000000000000	0.00000000000000	0.00000000000000	0.00000000000000	
0.74999900000000	-7.15938400000000	719.78872999999999	44.48274300000000	0.17244300000000	0.00000000000000	0.11429800000000	0.00000000000000	0.00000000000000	0.00000000000000	0.00000000000000	0.00000000000000	0.00000000000000	0.00000000000000	18.08561800000000	0.00000000000000	0.00000000000000	0.00000000000000	0.00000000000000	
0.75166100000000	-8.06778000000000	721.22834999999998	44.39748400000000	0.17095600000000	0.00000000000000	0.11425000000000	0.00000000000000	0.00000000000000	0.00000000000000	0.00000000000000	0.00000000000000	0.00000000000000	0.00000000000000	18.19463300000000	0.00000000000000	0.00000000000000	0.00000000000000	0.00000000000000	
0.75333200000000	-8.97959300000000	722.71731699999998	44.31508800000000	0.16947700000000	0.00000000000000	0.11420200000000	0.00000000000000	0.00000000000000	0.00000000000000	0.00000000000000	0.00000000000000	0.00000000000000	0.00000000000000	18.30597700000000	0.00000000000000	0.00000000000000	0.00000000000000	0.00000000000000	
0.75500200000000	-9.89399300000000	724.25548700000002	44.23593600000000	0.16800700000000	0.00000000000000	0.11415300000000	0.00000000000000	0.00000000000000	0.00000000000000	0.00000000000000	0.00000000000000	0.00000000000000	0.00000000000000	18.41959800000000	0.00000000000000	0.00000000000000	0.00000000000000	0.00000000000000	
0.75666900000000	-10.81014600000000	725.84259799999995	44.16040900000000	0.16654900000000	0.00000000000000	0.11410200000000	0.00000000000000	0.00000000000000	0.00000000000000	0.00000000000000	0.00000000000000	0.00000000000000	0.00000000000000	18.53543200000000	0.00000000000000	0.00000000000000	0.00000000000000	0.00000000000000	
0.75833300000000	-11.72721800000000	727.47826699999996	44.08888900000000	0.16510300000000	0.00000000000000	0.11405000000000	0.00000000000000	0.00000000000000	0.00000000000000	0.00000000000000	0.00000000000000	0.00000000000000	0.00000000000000	18.65340800000000	0.00000000000000	0.00000000000000	0.00000000000000	0.00000000000000	
0.76000300000000	-12.64437900000000	729.16198799999995	44.02175600000000	0.16367300000000	0.00000000000000	0.11399700000000	0.00000000000000	0.00000000000000	0.00000000000000	0.00000000000000	0.00000000000000	0.00000000000000	0.00000000000000	18.77344500000000	0.00000000000000	0.00000000000000	0.00000000000000	0.00000000000000	
